<?xml version="1.0" encoding="UTF-8"?>
<svg xmlns="http://www.w3.org/2000/svg" width="511" height="511" viewBox="0 0 511 511">
  <path d="M 274 314 L 267 321 L 266 330 L 269 336 L 273 339 L 283 340 L 289 336 L 292 330 L 292 323 L 287 316 L 283 314 Z M 307 286 L 299 292 L 298 303 L 303 310 L 307 312 L 313 312 L 321 307 L 323 303 L 323 295 L 317 287 Z M 406 269 L 400 253 L 393 240 L 378 220 L 354 200 L 344 202 L 327 209 L 309 221 L 252 273 L 215 303 L 192 319 L 153 340 L 112 356 L 110 358 L 131 380 L 147 393 L 174 410 L 194 419 L 219 427 L 242 431 L 278 431 L 307 425 L 332 415 L 354 402 L 362 396 L 382 376 L 392 362 L 402 342 L 409 317 L 410 295 Z M 350 266 L 355 276 L 359 290 L 359 308 L 357 318 L 350 334 L 343 344 L 332 355 L 321 363 L 306 371 L 287 377 L 275 379 L 246 379 L 218 373 L 194 362 L 268 280 L 310 237 L 321 240 L 334 248 Z M 199 195 L 194 197 L 189 202 L 186 212 L 189 220 L 194 225 L 198 227 L 207 227 L 216 220 L 218 216 L 218 207 L 212 198 L 206 195 Z M 237 165 L 227 170 L 223 178 L 223 186 L 225 191 L 229 195 L 236 198 L 243 198 L 249 195 L 254 189 L 255 179 L 253 173 L 247 167 Z M 375 124 L 356 110 L 335 98 L 311 88 L 271 79 L 234 79 L 196 87 L 166 101 L 144 117 L 126 136 L 115 153 L 105 176 L 100 202 L 101 230 L 108 256 L 121 279 L 143 303 L 163 316 L 171 315 L 188 307 L 202 296 L 263 240 L 304 206 L 326 191 L 349 178 L 403 152 Z M 319 148 L 320 150 L 200 278 L 189 274 L 179 268 L 161 250 L 153 234 L 150 220 L 150 206 L 152 195 L 157 181 L 163 171 L 172 160 L 186 148 L 198 141 L 213 135 L 229 131 L 248 129 L 269 130 L 283 133 L 301 139 Z" fill="#000" fill-rule="evenodd"/>
</svg>
